Coordinates
version=1
nRows=26
nColumns=24
inDegrees=yes

Units are S.I. units (second, meters, Newtons, ...)
Angles are in degrees.

endheader
time	pelvis_tilt	pelvis_list	pelvis_rotation	pelvis_tx	pelvis_ty	pelvis_tz	hip_flexion_r	hip_adduction_r	hip_rotation_r	knee_angle_r	ankle_angle_r	subtalar_angle_r	mtp_angle_r	hip_flexion_l	hip_adduction_l	hip_rotation_l	knee_angle_l	ankle_angle_l	subtalar_angle_l	mtp_angle_l	lumbar_extension	lumbar_bending	lumbar_rotation
      0.68700000	     -3.22850706	      5.32672180	      9.07897242	     -0.07467553	      0.96536618	      0.29484933	     35.04348368	    -11.24498826	    -11.00423255	     -4.43611897	      9.78817193	     -7.06214849	     -8.37409202	    -18.48477376	      5.25934370	      4.75738448	     -5.98242798	     11.88756679	     -5.30159873	      4.91475425	     -9.77971106	     -3.24645645	     -6.42982453
      0.69116667	     -3.20829714	      5.28011529	      9.21001146	     -0.06841457	      0.96457036	      0.29507040	     34.94694344	    -11.23292970	    -10.91325903	     -5.16647333	      9.90399333	     -7.06738051	     -8.35435353	    -18.73674119	      5.07076004	      4.77262034	     -6.23007340	     11.70974274	     -5.17514413	      4.94806930	     -9.78715011	     -3.09255399	     -6.50993820
      0.69533333	     -3.11045705	      5.20457739	      9.37354941	     -0.06210208	      0.96396764	      0.29522253	     34.71711505	    -11.20348962	    -10.96085747	     -5.82846694	      9.94245592	     -6.98156141	     -8.29925690	    -19.04169812	      4.82734215	      4.74716566	     -6.52313522	     11.53574447	     -5.00864622	      5.06031536	     -9.87030814	     -2.88320443	     -6.70233910
      0.69950000	     -3.01836144	      5.10214396	      9.53694757	     -0.05567070	      0.96340057	      0.29538450	     34.45357155	    -11.13656237	    -11.01697405	     -6.42218408	      9.91964795	     -6.99512430	     -8.22466737	    -19.35242877	      4.55505060	      4.76693638	     -6.78174109	     11.30128653	     -4.86525489	      5.21408452	     -9.92186504	     -2.64365179	     -6.86520226
      0.70366667	     -3.02989324	      5.05528090	      9.67642011	     -0.04926168	      0.96267464	      0.29567905	     34.30816439	    -11.10378789	    -10.98093016	     -6.99586713	      9.83217525	     -7.04370384	     -8.20244656	    -19.51964291	      4.36472273	      4.75034178	     -7.12110593	     11.00900987	     -4.80014166	      5.25863684	     -9.87137084	     -2.50485524	     -6.89030465
      0.70783333	     -2.86036262	      4.86941625	      9.85645646	     -0.04270760	      0.96236049	      0.29587718	     33.86839254	    -10.93296411	    -11.13148919	     -7.39362386	      9.59713968	     -7.12424820	     -8.06593842	    -19.84999741	      3.97793743	      4.67657994	     -7.46921789	     10.76981265	     -4.60392008	      5.53572477	    -10.00906690	     -2.15058005	     -7.14564781
      0.71200000	     -2.69077974	      4.74054286	      9.99476319	     -0.03618032	      0.96205415	      0.29619723	     33.44159946	    -10.78139640	    -11.21576581	     -7.77118412	      9.31335955	     -7.27829984	     -7.77938368	    -20.17947825	      3.66018234	      4.60924628	     -7.81819743	     10.43202913	     -4.45461306	      6.09330730	    -10.15610516	     -1.88289835	     -7.21888670
      0.71616667	     -2.75522858	      4.65462871	     10.09350488	     -0.02957611	      0.96137630	      0.29656950	     33.30308571	    -10.67815896	    -11.22690897	     -8.17001769	      8.95692678	     -7.33765794	     -7.73127731	    -20.25305816	      3.45369981	      4.56130567	     -8.20919353	     10.02991385	     -4.41822454	      6.18962289	    -10.02625682	     -1.71547471	     -7.24421321
      0.72033333	     -2.55073851	      4.44293267	     10.19676187	     -0.02291908	      0.96124287	      0.29703818	     32.77894643	    -10.39153186	    -11.30518271	     -8.34471937	      8.39883145	     -7.73269710	     -7.44354347	    -20.55311962	      3.04360637	      4.32776194	     -8.65426233	      9.69669920	     -4.16538084	      6.73158074	    -10.18152838	     -1.35438728	     -7.41169751
      0.72450000	     -2.58562183	      4.27309752	     10.29644580	     -0.01619520	      0.96076584	      0.29739683	     32.55195887	    -10.19065696	    -11.38687223	     -8.56498767	      7.79867144	     -7.99453612	     -7.31034069	    -20.59984009	      2.74998633	      4.23688486	     -9.12469852	      9.25782260	     -4.21379961	      6.98253522	    -10.04371431	     -1.07756142	     -7.39087229
      0.72866667	     -2.34352227	      4.04487098	     10.31133655	     -0.00949548	      0.96077719	      0.29807970	     31.99136640	     -9.81617871	    -11.38838122	     -8.62002847	      6.97837859	     -8.49632017	     -6.91765480	    -20.90132463	      2.33790053	      3.89252382	     -9.61782980	      8.82190197	     -3.89822755	      7.68421269	    -10.25688567	     -0.71284651	     -7.46485586
      0.73283333	     -2.21298074	      3.80526939	     10.30489138	     -0.00273411	      0.96066921	      0.29876607	     31.56309970	     -9.43335224	    -11.35967509	     -8.64636805	      6.02259274	     -9.08107949	     -6.29126028	    -21.06217967	      1.95404255	      3.56052670	    -10.15763908	      8.32286589	     -3.73360126	      8.78646370	    -10.31410791	     -0.35157428	     -7.43390266
      0.73700000	     -2.22832479	      3.57781630	     10.31529615	      0.00407915	      0.96039611	      0.29930717	     31.32355453	     -9.11724540	    -11.41901387	     -8.71580667	      5.02353432	     -9.54752730	     -1.47260997	    -21.04383508	      1.62504538	      3.30385680	    -10.74131853	      7.69090093	     -3.85751582	     17.42190362	    -10.18494788	     -0.02855812	     -7.29916170
      0.74116667	     -2.14915485	      3.34572680	     10.28770934	      0.01080935	      0.96034277	      0.29999003	     30.98730454	     -8.74790787	    -11.39281749	     -8.73798519	      3.89531714	    -10.16849863	     -1.48956733	    -21.08835230	      1.27948616	      3.00167664	    -11.38914141	      7.12175585	     -3.78519642	     17.52288275	    -10.20201225	      0.31501746	     -7.31785074
      0.74533333	     -2.07027138	      3.08687753	     10.21630708	      0.01757252	      0.96034745	      0.30076762	     30.66038368	     -8.32522151	    -11.30751257	     -8.72561860	      2.66340230	    -10.87564438	     -1.45616537	    -21.10003800	      0.92121390	      2.63564476	    -12.09079488	      6.51467128	     -3.74374235	     17.68272663	    -10.20368491	      0.67501624	     -7.21703050
      0.74950000	     -1.97583896	      2.75964842	     10.05322469	      0.02447691	      0.96038724	      0.30170165	     30.34562534	     -7.78687163	    -11.17483076	     -8.71505869	      1.39226163	    -11.61497775	     -1.34101326	    -21.11279534	      0.51364684	      2.09903660	    -12.81373655	      5.84925611	     -3.63397472	     17.99986572	    -10.19599679	      1.10826992	     -7.00094163
      0.75366667	     -1.93124162	      2.51692259	      9.92666400	      0.03117466	      0.96045452	      0.30254333	     30.12162873	     -7.37110095	    -11.02970919	     -8.77093555	      0.04121890	    -12.40620410	     -1.23339805	    -21.02071364	      0.20850985	      1.72365970	    -13.64201188	      5.17620967	     -3.70230318	     18.27437594	    -10.18293376	      1.43761901	     -6.88604673
      0.75783333	     -1.87759615	      2.21865844	      9.73135150	      0.03797780	      0.96056551	      0.30349835	     29.91536203	     -6.86818447	    -10.84324741	     -8.84985691	     -1.31760509	    -13.22214324	     -1.09332711	    -20.91457807	     -0.13804979	      1.21920379	    -14.50746453	      4.44516444	     -3.72364821	     18.60823167	    -10.15689539	      1.82612185	     -6.66086356
      0.76200000	     -1.82227021	      1.89438574	      9.46700093	      0.04481920	      0.96070825	      0.30462688	     29.72969152	     -6.30121082	    -10.55333986	     -8.94594429	     -2.63319205	    -14.02451161	     -0.89252190	    -20.77706543	     -0.49918038	      0.59984798	    -15.43776933	      3.66040447	     -3.72097283	     19.07738271	    -10.12985460	      2.22225937	     -6.37015680
      0.76616667	     -1.78222853	      1.53502560	      9.11677764	      0.05175318	      0.96081930	      0.30585119	     29.62106104	     -5.67515990	    -10.23976647	     -9.15135276	     -3.87960486	    -14.80449204	     -0.58388719	    -20.61261487	     -0.86836022	     -0.13975784	    -16.40011972	      2.83641008	     -3.71724729	     19.82834569	    -10.07542098	      2.66252532	     -6.00503697
      0.77033333	     -1.76337851	      1.29008839	      8.89830919	      0.05836575	      0.96107591	      0.30677404	     29.54062902	     -5.25225864	     -9.99842503	     -9.41487409	     -5.13100898	    -15.52621163	     -0.40194020	    -20.34096841	     -1.12992439	     -0.56992468	    -17.50293315	      1.99612907	     -3.96933435	     20.32267179	    -10.05518049	      2.97763367	     -5.81164282
      0.77450000	     -1.74136256	      0.96218332	      8.56405003	      0.06516554	      0.96130939	      0.30794317	     29.48663994	     -4.68631142	     -9.66542309	     -9.72099129	     -6.27410392	    -16.22476678	     -0.19490111	    -20.06068284	     -1.46427597	     -1.23190150	    -18.63769630	      1.09819812	     -4.10966735	     20.91142535	    -10.00737758	      3.37248744	     -5.47472279
      0.77866667	     -1.82521176	      0.65053779	      8.18044858	      0.07198556	      0.96136294	      0.30915519	     29.60910586	     -4.14723457	     -9.32075174	    -10.17662268	     -7.22316813	    -16.77528493	      2.05101193	    -19.63410286	     -1.75534198	     -1.94562129	    -19.84669493	      0.14358712	     -4.38045824	     28.48779121	     -9.83719679	      3.73671855	     -5.12413765
      0.78283333	     -1.72680775	      0.33713688	      7.88016877	      0.07865788	      0.96185221	      0.31016334	     29.49647402	     -3.63003728	     -9.05319647	    -10.58477007	     -8.18173403	    -17.31033049	      2.02319383	    -19.34989630	     -2.08911350	     -2.51875369	    -21.11560195	     -0.83991566	     -4.69921638	     28.52995826	     -9.90595277	      4.13918457	     -4.87246137
      0.78700000	     -1.70718148	      0.00866960	      7.50772062	      0.08538438	      0.96218544	      0.31136470	     29.50374618	     -3.07083813	     -8.70100849	    -11.07289801	     -8.98746093	    -17.78982971	      1.99233102	    -18.94920269	     -2.42715219	     -3.20453203	    -22.46721368	     -1.81843657	     -4.97237323	     28.60578972	     -9.87654163	      4.53054360	     -4.54812542
      0.79116667	     -1.69630964	     -0.30808843	      7.16121211	      0.09204679	      0.96253806	      0.31246553	     29.53704541	     -2.55178310	     -8.39922371	    -11.63207332	     -9.64999953	    -18.18957256	      1.96088241	    -18.49046670	     -2.75574973	     -3.82570385	    -23.90202512	     -2.79631265	     -5.39767705	     28.67376008	     -9.84497176	      4.92274811	     -4.26651346
